<svg xmlns="http://www.w3.org/2000/svg" width="360" height="240" viewBox="0 0 360 240" fill="none">
<defs>
<radialGradient id="g" cx="50%" cy="50%" r="58%"><stop offset="0" stop-color="#8F2332" stop-opacity="0.22"/><stop offset="1" stop-color="#D9884A" stop-opacity="0"/></radialGradient>
<filter id="blur"><feGaussianBlur stdDeviation="6"/></filter>
</defs>
<ellipse cx="180" cy="120" rx="128" ry="76" fill="url(#g)"/>
<ellipse cx="180" cy="120" rx="72" ry="41" stroke="#C7A160" stroke-opacity="0.160" stroke-width="1"/>
<ellipse cx="180" cy="120" rx="96" ry="55" stroke="#C7A160" stroke-opacity="0.125" stroke-width="1"/>
<ellipse cx="180" cy="120" rx="120" ry="69" stroke="#C7A160" stroke-opacity="0.090" stroke-width="1"/>
<path d="M112 93 C 146 61, 204 107, 234 77" stroke="#8F2332" stroke-opacity="0.34" stroke-width="2" stroke-linecap="round"/>
<path d="M140 109 C 174 77, 232 123, 262 93" stroke="#E2B53D" stroke-opacity="0.34" stroke-width="2" stroke-linecap="round"/>
<path d="M168 93 C 202 61, 260 107, 290 77" stroke="#D9884A" stroke-opacity="0.34" stroke-width="2" stroke-linecap="round"/>
<path d="M196 109 C 230 77, 288 123, 318 93" stroke="#8F2332" stroke-opacity="0.34" stroke-width="2" stroke-linecap="round"/>
<circle cx="220.8" cy="121.2" r="5.0" fill="#8F2332" fill-opacity="0.61"/>
<circle cx="103.1" cy="102.3" r="4.0" fill="#E2B53D" fill-opacity="0.58"/>
<circle cx="164.8" cy="97.5" r="5.0" fill="#D9884A" fill-opacity="0.67"/>
<circle cx="222.2" cy="153.8" r="2.5" fill="#8F2332" fill-opacity="0.61"/>
<circle cx="189.4" cy="82.3" r="5.0" fill="#E2B53D" fill-opacity="0.45"/>
<circle cx="146.6" cy="110.0" r="3.2" fill="#D9884A" fill-opacity="0.50"/>
<circle cx="221.0" cy="82.3" r="3.2" fill="#8F2332" fill-opacity="0.53"/>
<circle cx="107.7" cy="132.3" r="4.0" fill="#E2B53D" fill-opacity="0.65"/>
<circle cx="220.2" cy="154.0" r="3.2" fill="#D9884A" fill-opacity="0.47"/>
<circle cx="209.1" cy="118.8" r="2.5" fill="#8F2332" fill-opacity="0.62"/>
<circle cx="243.8" cy="172.0" r="4.0" fill="#E2B53D" fill-opacity="0.71"/>
<circle cx="261.7" cy="104.3" r="3.2" fill="#D9884A" fill-opacity="0.55"/>
<circle cx="201.9" cy="83.9" r="3.2" fill="#8F2332" fill-opacity="0.75"/>
<circle cx="73.5" cy="135.9" r="5.0" fill="#E2B53D" fill-opacity="0.64"/>
<circle cx="184.5" cy="116.5" r="5.0" fill="#D9884A" fill-opacity="0.50"/>
<circle cx="72.2" cy="77.1" r="4.0" fill="#8F2332" fill-opacity="0.64"/>
<circle cx="104.5" cy="146.5" r="5.0" fill="#E2B53D" fill-opacity="0.58"/>
<circle cx="192.9" cy="123.8" r="4.0" fill="#D9884A" fill-opacity="0.61"/>
<text x="18" y="218" font-family="Inter, Arial, sans-serif" font-size="11" letter-spacing="2" fill="#C7A160" fill-opacity="0.62">R05</text>
</svg>