<svg xmlns="http://www.w3.org/2000/svg" width="360" height="240" viewBox="0 0 360 240" fill="none">
<defs>
<radialGradient id="g" cx="50%" cy="50%" r="58%"><stop offset="0" stop-color="#D8C2A4" stop-opacity="0.22"/><stop offset="1" stop-color="#C7A160" stop-opacity="0"/></radialGradient>
<filter id="blur"><feGaussianBlur stdDeviation="6"/></filter>
</defs>
<ellipse cx="180" cy="120" rx="128" ry="76" fill="url(#g)"/>
<ellipse cx="180" cy="120" rx="72" ry="41" stroke="#C7A160" stroke-opacity="0.160" stroke-width="1"/>
<ellipse cx="180" cy="120" rx="96" ry="55" stroke="#C7A160" stroke-opacity="0.125" stroke-width="1"/>
<ellipse cx="180" cy="120" rx="120" ry="69" stroke="#C7A160" stroke-opacity="0.090" stroke-width="1"/>
<path d="M112 93 C 146 61, 204 107, 234 77" stroke="#D8C2A4" stroke-opacity="0.34" stroke-width="2" stroke-linecap="round"/>
<path d="M140 109 C 174 77, 232 123, 262 93" stroke="#B79A74" stroke-opacity="0.34" stroke-width="2" stroke-linecap="round"/>
<path d="M168 93 C 202 61, 260 107, 290 77" stroke="#C7A160" stroke-opacity="0.34" stroke-width="2" stroke-linecap="round"/>
<path d="M196 109 C 230 77, 288 123, 318 93" stroke="#D8C2A4" stroke-opacity="0.34" stroke-width="2" stroke-linecap="round"/>
<circle cx="141.1" cy="176.7" r="5.0" fill="#D8C2A4" fill-opacity="0.69"/>
<circle cx="133.3" cy="109.8" r="4.0" fill="#B79A74" fill-opacity="0.58"/>
<circle cx="104.9" cy="137.6" r="3.2" fill="#C7A160" fill-opacity="0.64"/>
<circle cx="259.6" cy="67.7" r="4.0" fill="#D8C2A4" fill-opacity="0.48"/>
<circle cx="131.9" cy="106.9" r="4.0" fill="#B79A74" fill-opacity="0.50"/>
<circle cx="161.3" cy="107.5" r="3.2" fill="#C7A160" fill-opacity="0.56"/>
<circle cx="114.6" cy="164.3" r="3.2" fill="#D8C2A4" fill-opacity="0.56"/>
<circle cx="257.5" cy="132.4" r="4.0" fill="#B79A74" fill-opacity="0.67"/>
<circle cx="283.2" cy="83.9" r="4.0" fill="#C7A160" fill-opacity="0.74"/>
<circle cx="109.6" cy="109.4" r="2.5" fill="#D8C2A4" fill-opacity="0.60"/>
<circle cx="110.3" cy="101.2" r="4.0" fill="#B79A74" fill-opacity="0.58"/>
<circle cx="266.9" cy="87.5" r="4.0" fill="#C7A160" fill-opacity="0.63"/>
<circle cx="252.9" cy="168.1" r="2.5" fill="#D8C2A4" fill-opacity="0.51"/>
<circle cx="148.3" cy="172.8" r="3.2" fill="#B79A74" fill-opacity="0.69"/>
<circle cx="257.9" cy="102.7" r="5.0" fill="#C7A160" fill-opacity="0.53"/>
<circle cx="111.7" cy="145.1" r="2.5" fill="#D8C2A4" fill-opacity="0.77"/>
<circle cx="195.8" cy="79.6" r="4.0" fill="#B79A74" fill-opacity="0.75"/>
<circle cx="238.1" cy="123.9" r="2.5" fill="#C7A160" fill-opacity="0.70"/>
<text x="18" y="218" font-family="Inter, Arial, sans-serif" font-size="11" letter-spacing="2" fill="#C7A160" fill-opacity="0.62">R13</text>
</svg>