<svg xmlns="http://www.w3.org/2000/svg" width="360" height="240" viewBox="0 0 360 240" fill="none">
<defs>
<radialGradient id="g" cx="50%" cy="50%" r="58%"><stop offset="0" stop-color="#322442" stop-opacity="0.22"/><stop offset="1" stop-color="#4B2E59" stop-opacity="0"/></radialGradient>
<filter id="blur"><feGaussianBlur stdDeviation="6"/></filter>
</defs>
<ellipse cx="180" cy="120" rx="128" ry="76" fill="url(#g)"/>
<ellipse cx="180" cy="120" rx="72" ry="41" stroke="#C7A160" stroke-opacity="0.160" stroke-width="1"/>
<ellipse cx="180" cy="120" rx="96" ry="55" stroke="#C7A160" stroke-opacity="0.125" stroke-width="1"/>
<ellipse cx="180" cy="120" rx="120" ry="69" stroke="#C7A160" stroke-opacity="0.090" stroke-width="1"/>
<path d="M112 93 C 146 61, 204 107, 234 77" stroke="#322442" stroke-opacity="0.34" stroke-width="2" stroke-linecap="round"/>
<path d="M140 109 C 174 77, 232 123, 262 93" stroke="#B32B47" stroke-opacity="0.34" stroke-width="2" stroke-linecap="round"/>
<path d="M168 93 C 202 61, 260 107, 290 77" stroke="#4B2E59" stroke-opacity="0.34" stroke-width="2" stroke-linecap="round"/>
<path d="M196 109 C 230 77, 288 123, 318 93" stroke="#322442" stroke-opacity="0.34" stroke-width="2" stroke-linecap="round"/>
<circle cx="275.1" cy="69.4" r="2.5" fill="#322442" fill-opacity="0.62"/>
<circle cx="264.8" cy="145.4" r="3.2" fill="#B32B47" fill-opacity="0.75"/>
<circle cx="108.6" cy="74.6" r="2.5" fill="#4B2E59" fill-opacity="0.77"/>
<circle cx="207.7" cy="114.1" r="4.0" fill="#322442" fill-opacity="0.54"/>
<circle cx="109.4" cy="78.8" r="3.2" fill="#B32B47" fill-opacity="0.62"/>
<circle cx="221.7" cy="123.5" r="5.0" fill="#4B2E59" fill-opacity="0.69"/>
<circle cx="179.5" cy="103.2" r="5.0" fill="#322442" fill-opacity="0.67"/>
<circle cx="219.7" cy="159.2" r="2.5" fill="#B32B47" fill-opacity="0.71"/>
<circle cx="178.8" cy="179.0" r="2.5" fill="#4B2E59" fill-opacity="0.52"/>
<circle cx="194.7" cy="157.3" r="2.5" fill="#322442" fill-opacity="0.71"/>
<circle cx="119.3" cy="145.3" r="2.5" fill="#B32B47" fill-opacity="0.68"/>
<circle cx="139.9" cy="75.0" r="5.0" fill="#4B2E59" fill-opacity="0.63"/>
<circle cx="135.9" cy="155.5" r="2.5" fill="#322442" fill-opacity="0.49"/>
<circle cx="281.5" cy="161.8" r="5.0" fill="#B32B47" fill-opacity="0.54"/>
<circle cx="142.1" cy="83.2" r="3.2" fill="#4B2E59" fill-opacity="0.76"/>
<circle cx="154.5" cy="164.7" r="4.0" fill="#322442" fill-opacity="0.68"/>
<circle cx="158.6" cy="100.2" r="2.5" fill="#B32B47" fill-opacity="0.48"/>
<circle cx="88.0" cy="174.8" r="4.0" fill="#4B2E59" fill-opacity="0.54"/>
<text x="18" y="218" font-family="Inter, Arial, sans-serif" font-size="11" letter-spacing="2" fill="#C7A160" fill-opacity="0.62">R08</text>
</svg>