<svg xmlns="http://www.w3.org/2000/svg" width="360" height="240" viewBox="0 0 360 240" fill="none">
<defs>
<radialGradient id="g" cx="50%" cy="50%" r="58%"><stop offset="0" stop-color="#D17841" stop-opacity="0.22"/><stop offset="1" stop-color="#C9484A" stop-opacity="0"/></radialGradient>
<filter id="blur"><feGaussianBlur stdDeviation="6"/></filter>
</defs>
<ellipse cx="180" cy="120" rx="128" ry="76" fill="url(#g)"/>
<ellipse cx="180" cy="120" rx="72" ry="41" stroke="#C7A160" stroke-opacity="0.160" stroke-width="1"/>
<ellipse cx="180" cy="120" rx="96" ry="55" stroke="#C7A160" stroke-opacity="0.125" stroke-width="1"/>
<ellipse cx="180" cy="120" rx="120" ry="69" stroke="#C7A160" stroke-opacity="0.090" stroke-width="1"/>
<path d="M112 93 C 146 61, 204 107, 234 77" stroke="#D17841" stroke-opacity="0.34" stroke-width="2" stroke-linecap="round"/>
<path d="M140 109 C 174 77, 232 123, 262 93" stroke="#B32A42" stroke-opacity="0.34" stroke-width="2" stroke-linecap="round"/>
<path d="M168 93 C 202 61, 260 107, 290 77" stroke="#C9484A" stroke-opacity="0.34" stroke-width="2" stroke-linecap="round"/>
<path d="M196 109 C 230 77, 288 123, 318 93" stroke="#D17841" stroke-opacity="0.34" stroke-width="2" stroke-linecap="round"/>
<circle cx="241.7" cy="85.9" r="5.0" fill="#D17841" fill-opacity="0.67"/>
<circle cx="192.7" cy="88.6" r="5.0" fill="#B32A42" fill-opacity="0.66"/>
<circle cx="74.0" cy="135.1" r="5.0" fill="#C9484A" fill-opacity="0.52"/>
<circle cx="120.2" cy="135.6" r="4.0" fill="#D17841" fill-opacity="0.74"/>
<circle cx="284.3" cy="169.6" r="3.2" fill="#B32A42" fill-opacity="0.78"/>
<circle cx="233.2" cy="78.3" r="4.0" fill="#C9484A" fill-opacity="0.58"/>
<circle cx="206.1" cy="143.0" r="5.0" fill="#D17841" fill-opacity="0.46"/>
<circle cx="250.3" cy="70.1" r="2.5" fill="#B32A42" fill-opacity="0.49"/>
<circle cx="83.0" cy="65.1" r="4.0" fill="#C9484A" fill-opacity="0.64"/>
<circle cx="270.8" cy="177.5" r="4.0" fill="#D17841" fill-opacity="0.51"/>
<circle cx="245.7" cy="133.1" r="5.0" fill="#B32A42" fill-opacity="0.56"/>
<circle cx="125.2" cy="142.7" r="4.0" fill="#C9484A" fill-opacity="0.66"/>
<circle cx="220.5" cy="164.8" r="5.0" fill="#D17841" fill-opacity="0.54"/>
<circle cx="261.5" cy="114.7" r="3.2" fill="#B32A42" fill-opacity="0.52"/>
<circle cx="157.7" cy="136.1" r="2.5" fill="#C9484A" fill-opacity="0.45"/>
<circle cx="262.1" cy="133.2" r="5.0" fill="#D17841" fill-opacity="0.48"/>
<circle cx="283.1" cy="104.9" r="5.0" fill="#B32A42" fill-opacity="0.51"/>
<circle cx="78.6" cy="127.0" r="5.0" fill="#C9484A" fill-opacity="0.76"/>
<text x="18" y="218" font-family="Inter, Arial, sans-serif" font-size="11" letter-spacing="2" fill="#C7A160" fill-opacity="0.62">R01</text>
</svg>