<svg xmlns="http://www.w3.org/2000/svg" width="360" height="240" viewBox="0 0 360 240" fill="none">
<defs>
<radialGradient id="g" cx="50%" cy="50%" r="58%"><stop offset="0" stop-color="#5B3D87" stop-opacity="0.22"/><stop offset="1" stop-color="#82D8F4" stop-opacity="0"/></radialGradient>
<filter id="blur"><feGaussianBlur stdDeviation="6"/></filter>
</defs>
<ellipse cx="180" cy="120" rx="128" ry="76" fill="url(#g)"/>
<ellipse cx="180" cy="120" rx="72" ry="41" stroke="#82D8F4" stroke-opacity="0.160" stroke-width="1"/>
<ellipse cx="180" cy="120" rx="96" ry="55" stroke="#82D8F4" stroke-opacity="0.125" stroke-width="1"/>
<ellipse cx="180" cy="120" rx="120" ry="69" stroke="#82D8F4" stroke-opacity="0.090" stroke-width="1"/>
<line x1="268.0" y1="120.0" x2="92.0" y2="120.0" stroke="#82D8F4" stroke-opacity="0.34" stroke-width="1.5"/>
<line x1="256.2" y1="144.0" x2="103.8" y2="96.0" stroke="#82D8F4" stroke-opacity="0.34" stroke-width="1.5"/>
<line x1="224.0" y1="161.6" x2="136.0" y2="78.4" stroke="#82D8F4" stroke-opacity="0.34" stroke-width="1.5"/>
<line x1="180.0" y1="168.0" x2="180.0" y2="72.0" stroke="#82D8F4" stroke-opacity="0.34" stroke-width="1.5"/>
<line x1="136.0" y1="161.6" x2="224.0" y2="78.4" stroke="#82D8F4" stroke-opacity="0.34" stroke-width="1.5"/>
<line x1="103.8" y1="144.0" x2="256.2" y2="96.0" stroke="#82D8F4" stroke-opacity="0.34" stroke-width="1.5"/>
<circle cx="180" cy="120" r="8" fill="#82D8F4" fill-opacity="0.45"/>
<circle cx="100.7" cy="161.6" r="5.0" fill="#5B3D87" fill-opacity="0.74"/>
<circle cx="210.1" cy="131.0" r="2.5" fill="#374C8E" fill-opacity="0.49"/>
<circle cx="132.5" cy="140.8" r="4.0" fill="#82D8F4" fill-opacity="0.77"/>
<circle cx="195.2" cy="76.2" r="4.0" fill="#5B3D87" fill-opacity="0.62"/>
<circle cx="276.1" cy="107.6" r="5.0" fill="#374C8E" fill-opacity="0.50"/>
<circle cx="133.0" cy="126.5" r="5.0" fill="#82D8F4" fill-opacity="0.49"/>
<circle cx="176.2" cy="170.3" r="3.2" fill="#5B3D87" fill-opacity="0.64"/>
<circle cx="130.1" cy="61.0" r="5.0" fill="#374C8E" fill-opacity="0.49"/>
<circle cx="225.8" cy="88.9" r="2.5" fill="#82D8F4" fill-opacity="0.56"/>
<circle cx="286.5" cy="129.1" r="3.2" fill="#5B3D87" fill-opacity="0.77"/>
<circle cx="287.9" cy="86.3" r="4.0" fill="#374C8E" fill-opacity="0.54"/>
<circle cx="169.5" cy="134.8" r="3.2" fill="#82D8F4" fill-opacity="0.50"/>
<circle cx="161.6" cy="129.8" r="3.2" fill="#5B3D87" fill-opacity="0.67"/>
<circle cx="204.9" cy="136.2" r="5.0" fill="#374C8E" fill-opacity="0.71"/>
<circle cx="201.2" cy="153.3" r="2.5" fill="#82D8F4" fill-opacity="0.47"/>
<circle cx="72.7" cy="138.7" r="2.5" fill="#5B3D87" fill-opacity="0.48"/>
<circle cx="201.0" cy="165.6" r="2.5" fill="#374C8E" fill-opacity="0.52"/>
<circle cx="264.9" cy="79.7" r="3.2" fill="#82D8F4" fill-opacity="0.55"/>
<text x="18" y="218" font-family="Inter, Arial, sans-serif" font-size="11" letter-spacing="2" fill="#82D8F4" fill-opacity="0.62">I09</text>
</svg>