<svg xmlns="http://www.w3.org/2000/svg" width="360" height="240" viewBox="0 0 360 240" fill="none">
<defs>
<radialGradient id="g" cx="50%" cy="50%" r="58%"><stop offset="0" stop-color="#E0A73A" stop-opacity="0.22"/><stop offset="1" stop-color="#BDEAF4" stop-opacity="0"/></radialGradient>
<filter id="blur"><feGaussianBlur stdDeviation="6"/></filter>
</defs>
<ellipse cx="180" cy="120" rx="128" ry="76" fill="url(#g)"/>
<ellipse cx="180" cy="120" rx="72" ry="41" stroke="#82D8F4" stroke-opacity="0.160" stroke-width="1"/>
<ellipse cx="180" cy="120" rx="96" ry="55" stroke="#82D8F4" stroke-opacity="0.125" stroke-width="1"/>
<ellipse cx="180" cy="120" rx="120" ry="69" stroke="#82D8F4" stroke-opacity="0.090" stroke-width="1"/>
<line x1="268.0" y1="120.0" x2="92.0" y2="120.0" stroke="#82D8F4" stroke-opacity="0.34" stroke-width="1.5"/>
<line x1="256.2" y1="144.0" x2="103.8" y2="96.0" stroke="#82D8F4" stroke-opacity="0.34" stroke-width="1.5"/>
<line x1="224.0" y1="161.6" x2="136.0" y2="78.4" stroke="#82D8F4" stroke-opacity="0.34" stroke-width="1.5"/>
<line x1="180.0" y1="168.0" x2="180.0" y2="72.0" stroke="#82D8F4" stroke-opacity="0.34" stroke-width="1.5"/>
<line x1="136.0" y1="161.6" x2="224.0" y2="78.4" stroke="#82D8F4" stroke-opacity="0.34" stroke-width="1.5"/>
<line x1="103.8" y1="144.0" x2="256.2" y2="96.0" stroke="#82D8F4" stroke-opacity="0.34" stroke-width="1.5"/>
<circle cx="180" cy="120" r="8" fill="#82D8F4" fill-opacity="0.45"/>
<circle cx="90.5" cy="167.6" r="2.5" fill="#E0A73A" fill-opacity="0.76"/>
<circle cx="78.5" cy="134.6" r="2.5" fill="#82D8F4" fill-opacity="0.68"/>
<circle cx="79.5" cy="173.6" r="5.0" fill="#BDEAF4" fill-opacity="0.47"/>
<circle cx="195.8" cy="78.7" r="4.0" fill="#E0A73A" fill-opacity="0.55"/>
<circle cx="81.8" cy="63.5" r="5.0" fill="#82D8F4" fill-opacity="0.55"/>
<circle cx="105.5" cy="178.6" r="3.2" fill="#BDEAF4" fill-opacity="0.55"/>
<circle cx="206.2" cy="181.4" r="3.2" fill="#E0A73A" fill-opacity="0.60"/>
<circle cx="252.5" cy="131.8" r="4.0" fill="#82D8F4" fill-opacity="0.69"/>
<circle cx="270.3" cy="94.8" r="4.0" fill="#BDEAF4" fill-opacity="0.48"/>
<circle cx="215.2" cy="93.6" r="5.0" fill="#E0A73A" fill-opacity="0.73"/>
<circle cx="89.5" cy="60.1" r="5.0" fill="#82D8F4" fill-opacity="0.68"/>
<circle cx="147.6" cy="181.5" r="2.5" fill="#BDEAF4" fill-opacity="0.64"/>
<circle cx="265.5" cy="95.8" r="3.2" fill="#E0A73A" fill-opacity="0.64"/>
<circle cx="240.7" cy="153.6" r="5.0" fill="#82D8F4" fill-opacity="0.72"/>
<circle cx="86.4" cy="73.4" r="5.0" fill="#BDEAF4" fill-opacity="0.67"/>
<circle cx="185.5" cy="100.3" r="2.5" fill="#E0A73A" fill-opacity="0.69"/>
<circle cx="155.6" cy="91.8" r="2.5" fill="#82D8F4" fill-opacity="0.75"/>
<circle cx="287.1" cy="142.6" r="4.0" fill="#BDEAF4" fill-opacity="0.78"/>
<text x="18" y="218" font-family="Inter, Arial, sans-serif" font-size="11" letter-spacing="2" fill="#82D8F4" fill-opacity="0.62">I01</text>
</svg>