<svg xmlns="http://www.w3.org/2000/svg" width="360" height="240" viewBox="0 0 360 240" fill="none">
<defs>
<radialGradient id="g" cx="50%" cy="50%" r="58%"><stop offset="0" stop-color="#B72E4B" stop-opacity="0.22"/><stop offset="1" stop-color="#A9D949" stop-opacity="0"/></radialGradient>
<filter id="blur"><feGaussianBlur stdDeviation="6"/></filter>
</defs>
<ellipse cx="180" cy="120" rx="128" ry="76" fill="url(#g)"/>
<ellipse cx="180" cy="120" rx="72" ry="41" stroke="#A9D949" stroke-opacity="0.160" stroke-width="1"/>
<ellipse cx="180" cy="120" rx="96" ry="55" stroke="#A9D949" stroke-opacity="0.125" stroke-width="1"/>
<ellipse cx="180" cy="120" rx="120" ry="69" stroke="#A9D949" stroke-opacity="0.090" stroke-width="1"/>
<polyline points="62.0,123.3 84.0,125.5 106.0,119.3 128.0,134.5 150.0,126.5 172.0,118.3 194.0,106.7 216.0,123.3 238.0,116.9 260.0,130.9 282.0,118.4" stroke="#A9D949" stroke-opacity="0.58" stroke-width="2" stroke-linecap="round" stroke-linejoin="round"/>
<circle cx="242.4" cy="173.4" r="2.5" fill="#B72E4B" fill-opacity="0.51"/>
<circle cx="147.9" cy="154.8" r="4.0" fill="#78A84B" fill-opacity="0.47"/>
<circle cx="253.1" cy="175.6" r="4.0" fill="#A9D949" fill-opacity="0.72"/>
<circle cx="109.3" cy="81.0" r="2.5" fill="#B72E4B" fill-opacity="0.68"/>
<circle cx="236.1" cy="99.1" r="3.2" fill="#78A84B" fill-opacity="0.71"/>
<circle cx="271.0" cy="137.2" r="5.0" fill="#A9D949" fill-opacity="0.74"/>
<circle cx="262.4" cy="162.7" r="3.2" fill="#B72E4B" fill-opacity="0.77"/>
<circle cx="226.2" cy="148.3" r="3.2" fill="#78A84B" fill-opacity="0.77"/>
<circle cx="212.8" cy="161.1" r="3.2" fill="#A9D949" fill-opacity="0.63"/>
<circle cx="278.2" cy="93.6" r="2.5" fill="#B72E4B" fill-opacity="0.53"/>
<circle cx="72.2" cy="84.9" r="2.5" fill="#78A84B" fill-opacity="0.56"/>
<circle cx="187.0" cy="63.6" r="4.0" fill="#A9D949" fill-opacity="0.66"/>
<circle cx="238.5" cy="130.5" r="4.0" fill="#B72E4B" fill-opacity="0.45"/>
<circle cx="73.5" cy="76.1" r="5.0" fill="#78A84B" fill-opacity="0.64"/>
<circle cx="274.9" cy="125.2" r="4.0" fill="#A9D949" fill-opacity="0.64"/>
<circle cx="182.8" cy="115.2" r="5.0" fill="#B72E4B" fill-opacity="0.62"/>
<circle cx="113.5" cy="167.4" r="4.0" fill="#78A84B" fill-opacity="0.64"/>
<circle cx="262.5" cy="67.3" r="4.0" fill="#A9D949" fill-opacity="0.77"/>
<text x="18" y="218" font-family="Inter, Arial, sans-serif" font-size="11" letter-spacing="2" fill="#A9D949" fill-opacity="0.62">S02</text>
</svg>