<svg xmlns="http://www.w3.org/2000/svg" width="360" height="240" viewBox="0 0 360 240" fill="none">
<defs>
<radialGradient id="g" cx="50%" cy="50%" r="58%"><stop offset="0" stop-color="#2D243E" stop-opacity="0.22"/><stop offset="1" stop-color="#A9D949" stop-opacity="0"/></radialGradient>
<filter id="blur"><feGaussianBlur stdDeviation="6"/></filter>
</defs>
<ellipse cx="180" cy="120" rx="128" ry="76" fill="url(#g)"/>
<ellipse cx="180" cy="120" rx="72" ry="41" stroke="#A9D949" stroke-opacity="0.160" stroke-width="1"/>
<ellipse cx="180" cy="120" rx="96" ry="55" stroke="#A9D949" stroke-opacity="0.125" stroke-width="1"/>
<ellipse cx="180" cy="120" rx="120" ry="69" stroke="#A9D949" stroke-opacity="0.090" stroke-width="1"/>
<polyline points="62.0,104.9 84.0,117.4 106.0,105.8 128.0,126.5 150.0,118.8 172.0,144.5 194.0,125.0 216.0,117.1 238.0,113.4 260.0,147.1 282.0,109.4" stroke="#A9D949" stroke-opacity="0.58" stroke-width="2" stroke-linecap="round" stroke-linejoin="round"/>
<circle cx="280.1" cy="173.0" r="5.0" fill="#2D243E" fill-opacity="0.56"/>
<circle cx="248.5" cy="109.8" r="4.0" fill="#5F315B" fill-opacity="0.76"/>
<circle cx="257.1" cy="160.9" r="5.0" fill="#A9D949" fill-opacity="0.60"/>
<circle cx="94.7" cy="151.9" r="4.0" fill="#2D243E" fill-opacity="0.58"/>
<circle cx="90.1" cy="102.0" r="5.0" fill="#5F315B" fill-opacity="0.57"/>
<circle cx="128.2" cy="113.6" r="4.0" fill="#A9D949" fill-opacity="0.45"/>
<circle cx="231.0" cy="134.2" r="5.0" fill="#2D243E" fill-opacity="0.60"/>
<circle cx="93.2" cy="62.7" r="3.2" fill="#5F315B" fill-opacity="0.71"/>
<circle cx="262.8" cy="74.4" r="4.0" fill="#A9D949" fill-opacity="0.46"/>
<circle cx="81.1" cy="109.0" r="2.5" fill="#2D243E" fill-opacity="0.63"/>
<circle cx="83.5" cy="131.8" r="3.2" fill="#5F315B" fill-opacity="0.47"/>
<circle cx="253.7" cy="100.2" r="2.5" fill="#A9D949" fill-opacity="0.56"/>
<circle cx="141.6" cy="89.5" r="3.2" fill="#2D243E" fill-opacity="0.49"/>
<circle cx="196.4" cy="96.9" r="2.5" fill="#5F315B" fill-opacity="0.53"/>
<circle cx="108.4" cy="68.6" r="3.2" fill="#A9D949" fill-opacity="0.61"/>
<circle cx="213.7" cy="87.5" r="5.0" fill="#2D243E" fill-opacity="0.73"/>
<circle cx="90.7" cy="80.3" r="2.5" fill="#5F315B" fill-opacity="0.63"/>
<circle cx="227.9" cy="169.1" r="3.2" fill="#A9D949" fill-opacity="0.68"/>
<text x="18" y="218" font-family="Inter, Arial, sans-serif" font-size="11" letter-spacing="2" fill="#A9D949" fill-opacity="0.62">S03</text>
</svg>