<svg xmlns="http://www.w3.org/2000/svg" width="360" height="240" viewBox="0 0 360 240" fill="none">
<defs>
<radialGradient id="g" cx="50%" cy="50%" r="58%"><stop offset="0" stop-color="#D57B43" stop-opacity="0.22"/><stop offset="1" stop-color="#A9D949" stop-opacity="0"/></radialGradient>
<filter id="blur"><feGaussianBlur stdDeviation="6"/></filter>
</defs>
<ellipse cx="180" cy="120" rx="128" ry="76" fill="url(#g)"/>
<ellipse cx="180" cy="120" rx="72" ry="41" stroke="#A9D949" stroke-opacity="0.160" stroke-width="1"/>
<ellipse cx="180" cy="120" rx="96" ry="55" stroke="#A9D949" stroke-opacity="0.125" stroke-width="1"/>
<ellipse cx="180" cy="120" rx="120" ry="69" stroke="#A9D949" stroke-opacity="0.090" stroke-width="1"/>
<polyline points="62.0,124.9 84.0,133.7 106.0,109.1 128.0,119.1 150.0,109.0 172.0,126.1 194.0,102.7 216.0,145.5 238.0,124.7 260.0,148.5 282.0,104.4" stroke="#A9D949" stroke-opacity="0.58" stroke-width="2" stroke-linecap="round" stroke-linejoin="round"/>
<circle cx="277.0" cy="128.8" r="2.5" fill="#D57B43" fill-opacity="0.49"/>
<circle cx="214.3" cy="171.5" r="4.0" fill="#7CAA44" fill-opacity="0.72"/>
<circle cx="237.7" cy="151.4" r="5.0" fill="#A9D949" fill-opacity="0.69"/>
<circle cx="96.4" cy="149.5" r="2.5" fill="#D57B43" fill-opacity="0.71"/>
<circle cx="283.1" cy="65.1" r="4.0" fill="#7CAA44" fill-opacity="0.72"/>
<circle cx="122.8" cy="139.0" r="3.2" fill="#A9D949" fill-opacity="0.57"/>
<circle cx="201.6" cy="129.6" r="3.2" fill="#D57B43" fill-opacity="0.71"/>
<circle cx="264.2" cy="181.5" r="4.0" fill="#7CAA44" fill-opacity="0.62"/>
<circle cx="135.3" cy="99.8" r="4.0" fill="#A9D949" fill-opacity="0.59"/>
<circle cx="155.5" cy="123.5" r="3.2" fill="#D57B43" fill-opacity="0.76"/>
<circle cx="138.7" cy="163.0" r="5.0" fill="#7CAA44" fill-opacity="0.77"/>
<circle cx="134.7" cy="91.4" r="2.5" fill="#A9D949" fill-opacity="0.57"/>
<circle cx="241.4" cy="131.7" r="5.0" fill="#D57B43" fill-opacity="0.62"/>
<circle cx="125.8" cy="151.9" r="3.2" fill="#7CAA44" fill-opacity="0.73"/>
<circle cx="251.0" cy="134.7" r="3.2" fill="#A9D949" fill-opacity="0.46"/>
<circle cx="209.8" cy="175.2" r="4.0" fill="#D57B43" fill-opacity="0.48"/>
<circle cx="187.7" cy="130.6" r="4.0" fill="#7CAA44" fill-opacity="0.59"/>
<circle cx="283.4" cy="146.7" r="2.5" fill="#A9D949" fill-opacity="0.49"/>
<text x="18" y="218" font-family="Inter, Arial, sans-serif" font-size="11" letter-spacing="2" fill="#A9D949" fill-opacity="0.62">S04</text>
</svg>