<svg xmlns="http://www.w3.org/2000/svg" width="360" height="240" viewBox="0 0 360 240" fill="none">
<defs>
<radialGradient id="g" cx="50%" cy="50%" r="58%"><stop offset="0" stop-color="#C94749" stop-opacity="0.22"/><stop offset="1" stop-color="#D8C2A4" stop-opacity="0"/></radialGradient>
<filter id="blur"><feGaussianBlur stdDeviation="6"/></filter>
</defs>
<ellipse cx="180" cy="120" rx="128" ry="76" fill="url(#g)"/>
<ellipse cx="180" cy="120" rx="72" ry="41" stroke="#82D8F4" stroke-opacity="0.160" stroke-width="1"/>
<ellipse cx="180" cy="120" rx="96" ry="55" stroke="#82D8F4" stroke-opacity="0.125" stroke-width="1"/>
<ellipse cx="180" cy="120" rx="120" ry="69" stroke="#82D8F4" stroke-opacity="0.090" stroke-width="1"/>
<line x1="268.0" y1="120.0" x2="92.0" y2="120.0" stroke="#82D8F4" stroke-opacity="0.34" stroke-width="1.5"/>
<line x1="256.2" y1="144.0" x2="103.8" y2="96.0" stroke="#82D8F4" stroke-opacity="0.34" stroke-width="1.5"/>
<line x1="224.0" y1="161.6" x2="136.0" y2="78.4" stroke="#82D8F4" stroke-opacity="0.34" stroke-width="1.5"/>
<line x1="180.0" y1="168.0" x2="180.0" y2="72.0" stroke="#82D8F4" stroke-opacity="0.34" stroke-width="1.5"/>
<line x1="136.0" y1="161.6" x2="224.0" y2="78.4" stroke="#82D8F4" stroke-opacity="0.34" stroke-width="1.5"/>
<line x1="103.8" y1="144.0" x2="256.2" y2="96.0" stroke="#82D8F4" stroke-opacity="0.34" stroke-width="1.5"/>
<circle cx="180" cy="120" r="8" fill="#82D8F4" fill-opacity="0.45"/>
<circle cx="97.7" cy="138.9" r="2.5" fill="#C94749" fill-opacity="0.63"/>
<circle cx="218.7" cy="129.1" r="4.0" fill="#DDBD65" fill-opacity="0.65"/>
<circle cx="86.9" cy="128.0" r="4.0" fill="#D8C2A4" fill-opacity="0.73"/>
<circle cx="208.6" cy="142.8" r="5.0" fill="#C94749" fill-opacity="0.60"/>
<circle cx="185.0" cy="81.6" r="3.2" fill="#DDBD65" fill-opacity="0.52"/>
<circle cx="73.6" cy="122.7" r="4.0" fill="#D8C2A4" fill-opacity="0.57"/>
<circle cx="185.4" cy="99.3" r="3.2" fill="#C94749" fill-opacity="0.49"/>
<circle cx="270.5" cy="98.2" r="2.5" fill="#DDBD65" fill-opacity="0.46"/>
<circle cx="262.9" cy="86.0" r="4.0" fill="#D8C2A4" fill-opacity="0.69"/>
<circle cx="75.2" cy="163.2" r="5.0" fill="#C94749" fill-opacity="0.60"/>
<circle cx="95.2" cy="110.9" r="3.2" fill="#DDBD65" fill-opacity="0.61"/>
<circle cx="195.9" cy="173.0" r="5.0" fill="#D8C2A4" fill-opacity="0.75"/>
<circle cx="128.3" cy="156.4" r="4.0" fill="#C94749" fill-opacity="0.77"/>
<circle cx="284.3" cy="181.4" r="5.0" fill="#DDBD65" fill-opacity="0.50"/>
<circle cx="164.4" cy="63.9" r="5.0" fill="#D8C2A4" fill-opacity="0.74"/>
<circle cx="232.8" cy="110.7" r="3.2" fill="#C94749" fill-opacity="0.71"/>
<circle cx="229.3" cy="162.5" r="3.2" fill="#DDBD65" fill-opacity="0.59"/>
<circle cx="188.8" cy="109.4" r="2.5" fill="#D8C2A4" fill-opacity="0.67"/>
<text x="18" y="218" font-family="Inter, Arial, sans-serif" font-size="11" letter-spacing="2" fill="#82D8F4" fill-opacity="0.62">I08</text>
</svg>