<svg xmlns="http://www.w3.org/2000/svg" width="360" height="240" viewBox="0 0 360 240" fill="none">
<defs>
<radialGradient id="g" cx="50%" cy="50%" r="58%"><stop offset="0" stop-color="#C94749" stop-opacity="0.22"/><stop offset="1" stop-color="#6C8C5E" stop-opacity="0"/></radialGradient>
<filter id="blur"><feGaussianBlur stdDeviation="6"/></filter>
</defs>
<ellipse cx="180" cy="120" rx="128" ry="76" fill="url(#g)"/>
<ellipse cx="180" cy="120" rx="72" ry="41" stroke="#C7A160" stroke-opacity="0.160" stroke-width="1"/>
<ellipse cx="180" cy="120" rx="96" ry="55" stroke="#C7A160" stroke-opacity="0.125" stroke-width="1"/>
<ellipse cx="180" cy="120" rx="120" ry="69" stroke="#C7A160" stroke-opacity="0.090" stroke-width="1"/>
<path d="M112 93 C 146 61, 204 107, 234 77" stroke="#C94749" stroke-opacity="0.34" stroke-width="2" stroke-linecap="round"/>
<path d="M140 109 C 174 77, 232 123, 262 93" stroke="#D46A8C" stroke-opacity="0.34" stroke-width="2" stroke-linecap="round"/>
<path d="M168 93 C 202 61, 260 107, 290 77" stroke="#6C8C5E" stroke-opacity="0.34" stroke-width="2" stroke-linecap="round"/>
<path d="M196 109 C 230 77, 288 123, 318 93" stroke="#C94749" stroke-opacity="0.34" stroke-width="2" stroke-linecap="round"/>
<circle cx="242.9" cy="181.2" r="5.0" fill="#C94749" fill-opacity="0.51"/>
<circle cx="147.8" cy="167.5" r="4.0" fill="#D46A8C" fill-opacity="0.77"/>
<circle cx="249.7" cy="113.5" r="4.0" fill="#6C8C5E" fill-opacity="0.56"/>
<circle cx="74.2" cy="88.5" r="5.0" fill="#C94749" fill-opacity="0.59"/>
<circle cx="218.1" cy="180.2" r="4.0" fill="#D46A8C" fill-opacity="0.60"/>
<circle cx="143.0" cy="70.7" r="2.5" fill="#6C8C5E" fill-opacity="0.72"/>
<circle cx="230.5" cy="153.1" r="2.5" fill="#C94749" fill-opacity="0.73"/>
<circle cx="114.5" cy="136.9" r="3.2" fill="#D46A8C" fill-opacity="0.70"/>
<circle cx="152.3" cy="132.7" r="3.2" fill="#6C8C5E" fill-opacity="0.55"/>
<circle cx="99.1" cy="144.0" r="4.0" fill="#C94749" fill-opacity="0.53"/>
<circle cx="148.7" cy="84.4" r="5.0" fill="#D46A8C" fill-opacity="0.69"/>
<circle cx="90.0" cy="82.6" r="4.0" fill="#6C8C5E" fill-opacity="0.56"/>
<circle cx="272.7" cy="138.5" r="3.2" fill="#C94749" fill-opacity="0.55"/>
<circle cx="253.3" cy="128.8" r="4.0" fill="#D46A8C" fill-opacity="0.53"/>
<circle cx="185.6" cy="72.1" r="5.0" fill="#6C8C5E" fill-opacity="0.63"/>
<circle cx="233.6" cy="89.8" r="4.0" fill="#C94749" fill-opacity="0.65"/>
<circle cx="185.7" cy="137.4" r="5.0" fill="#D46A8C" fill-opacity="0.68"/>
<circle cx="188.2" cy="166.9" r="5.0" fill="#6C8C5E" fill-opacity="0.75"/>
<text x="18" y="218" font-family="Inter, Arial, sans-serif" font-size="11" letter-spacing="2" fill="#C7A160" fill-opacity="0.62">R10</text>
</svg>