<svg xmlns="http://www.w3.org/2000/svg" width="360" height="240" viewBox="0 0 360 240" fill="none">
<defs>
<radialGradient id="g" cx="50%" cy="50%" r="58%"><stop offset="0" stop-color="#C5353A" stop-opacity="0.22"/><stop offset="1" stop-color="#C7A160" stop-opacity="0"/></radialGradient>
<filter id="blur"><feGaussianBlur stdDeviation="6"/></filter>
</defs>
<ellipse cx="180" cy="120" rx="128" ry="76" fill="url(#g)"/>
<ellipse cx="180" cy="120" rx="72" ry="41" stroke="#C7A160" stroke-opacity="0.160" stroke-width="1"/>
<ellipse cx="180" cy="120" rx="96" ry="55" stroke="#C7A160" stroke-opacity="0.125" stroke-width="1"/>
<ellipse cx="180" cy="120" rx="120" ry="69" stroke="#C7A160" stroke-opacity="0.090" stroke-width="1"/>
<path d="M112 93 C 146 61, 204 107, 234 77" stroke="#C5353A" stroke-opacity="0.34" stroke-width="2" stroke-linecap="round"/>
<path d="M140 109 C 174 77, 232 123, 262 93" stroke="#B12B2F" stroke-opacity="0.34" stroke-width="2" stroke-linecap="round"/>
<path d="M168 93 C 202 61, 260 107, 290 77" stroke="#C7A160" stroke-opacity="0.34" stroke-width="2" stroke-linecap="round"/>
<path d="M196 109 C 230 77, 288 123, 318 93" stroke="#C5353A" stroke-opacity="0.34" stroke-width="2" stroke-linecap="round"/>
<circle cx="103.8" cy="59.4" r="4.0" fill="#C5353A" fill-opacity="0.51"/>
<circle cx="181.8" cy="134.5" r="2.5" fill="#B12B2F" fill-opacity="0.57"/>
<circle cx="82.3" cy="162.4" r="2.5" fill="#C7A160" fill-opacity="0.66"/>
<circle cx="253.2" cy="104.5" r="5.0" fill="#C5353A" fill-opacity="0.58"/>
<circle cx="129.4" cy="129.7" r="3.2" fill="#B12B2F" fill-opacity="0.63"/>
<circle cx="244.8" cy="126.2" r="4.0" fill="#C7A160" fill-opacity="0.62"/>
<circle cx="180.3" cy="119.3" r="4.0" fill="#C5353A" fill-opacity="0.48"/>
<circle cx="217.9" cy="71.1" r="2.5" fill="#B12B2F" fill-opacity="0.65"/>
<circle cx="166.6" cy="69.1" r="4.0" fill="#C7A160" fill-opacity="0.52"/>
<circle cx="119.9" cy="113.9" r="2.5" fill="#C5353A" fill-opacity="0.75"/>
<circle cx="187.5" cy="64.9" r="3.2" fill="#B12B2F" fill-opacity="0.69"/>
<circle cx="278.9" cy="119.3" r="2.5" fill="#C7A160" fill-opacity="0.69"/>
<circle cx="221.2" cy="76.2" r="4.0" fill="#C5353A" fill-opacity="0.62"/>
<circle cx="165.2" cy="107.3" r="2.5" fill="#B12B2F" fill-opacity="0.56"/>
<circle cx="216.1" cy="170.9" r="4.0" fill="#C7A160" fill-opacity="0.60"/>
<circle cx="74.5" cy="113.1" r="2.5" fill="#C5353A" fill-opacity="0.48"/>
<circle cx="96.8" cy="171.5" r="3.2" fill="#B12B2F" fill-opacity="0.52"/>
<circle cx="116.6" cy="92.6" r="3.2" fill="#C7A160" fill-opacity="0.69"/>
<text x="18" y="218" font-family="Inter, Arial, sans-serif" font-size="11" letter-spacing="2" fill="#C7A160" fill-opacity="0.62">R11</text>
</svg>