<svg xmlns="http://www.w3.org/2000/svg" width="360" height="240" viewBox="0 0 360 240" fill="none">
<defs>
<radialGradient id="g" cx="50%" cy="50%" r="58%"><stop offset="0" stop-color="#A3284D" stop-opacity="0.22"/><stop offset="1" stop-color="#C7A160" stop-opacity="0"/></radialGradient>
<filter id="blur"><feGaussianBlur stdDeviation="6"/></filter>
</defs>
<ellipse cx="180" cy="120" rx="128" ry="76" fill="url(#g)"/>
<ellipse cx="180" cy="120" rx="72" ry="41" stroke="#C7A160" stroke-opacity="0.160" stroke-width="1"/>
<ellipse cx="180" cy="120" rx="96" ry="55" stroke="#C7A160" stroke-opacity="0.125" stroke-width="1"/>
<ellipse cx="180" cy="120" rx="120" ry="69" stroke="#C7A160" stroke-opacity="0.090" stroke-width="1"/>
<path d="M112 93 C 146 61, 204 107, 234 77" stroke="#A3284D" stroke-opacity="0.34" stroke-width="2" stroke-linecap="round"/>
<path d="M140 109 C 174 77, 232 123, 262 93" stroke="#6E283E" stroke-opacity="0.34" stroke-width="2" stroke-linecap="round"/>
<path d="M168 93 C 202 61, 260 107, 290 77" stroke="#C7A160" stroke-opacity="0.34" stroke-width="2" stroke-linecap="round"/>
<path d="M196 109 C 230 77, 288 123, 318 93" stroke="#A3284D" stroke-opacity="0.34" stroke-width="2" stroke-linecap="round"/>
<circle cx="282.2" cy="87.5" r="2.5" fill="#A3284D" fill-opacity="0.54"/>
<circle cx="272.6" cy="71.6" r="5.0" fill="#6E283E" fill-opacity="0.71"/>
<circle cx="262.6" cy="89.2" r="5.0" fill="#C7A160" fill-opacity="0.47"/>
<circle cx="274.2" cy="85.5" r="3.2" fill="#A3284D" fill-opacity="0.45"/>
<circle cx="105.7" cy="134.5" r="4.0" fill="#6E283E" fill-opacity="0.49"/>
<circle cx="192.8" cy="142.3" r="3.2" fill="#C7A160" fill-opacity="0.77"/>
<circle cx="127.3" cy="137.1" r="3.2" fill="#A3284D" fill-opacity="0.77"/>
<circle cx="136.0" cy="87.4" r="2.5" fill="#6E283E" fill-opacity="0.67"/>
<circle cx="120.7" cy="171.3" r="2.5" fill="#C7A160" fill-opacity="0.56"/>
<circle cx="161.9" cy="143.5" r="5.0" fill="#A3284D" fill-opacity="0.46"/>
<circle cx="80.0" cy="170.7" r="3.2" fill="#6E283E" fill-opacity="0.50"/>
<circle cx="227.6" cy="90.9" r="2.5" fill="#C7A160" fill-opacity="0.53"/>
<circle cx="89.4" cy="76.8" r="2.5" fill="#A3284D" fill-opacity="0.59"/>
<circle cx="122.9" cy="63.2" r="4.0" fill="#6E283E" fill-opacity="0.55"/>
<circle cx="85.1" cy="139.3" r="5.0" fill="#C7A160" fill-opacity="0.47"/>
<circle cx="114.6" cy="79.6" r="2.5" fill="#A3284D" fill-opacity="0.71"/>
<circle cx="230.9" cy="107.4" r="5.0" fill="#6E283E" fill-opacity="0.54"/>
<circle cx="123.5" cy="149.5" r="3.2" fill="#C7A160" fill-opacity="0.63"/>
<text x="18" y="218" font-family="Inter, Arial, sans-serif" font-size="11" letter-spacing="2" fill="#C7A160" fill-opacity="0.62">R06</text>
</svg>