<svg xmlns="http://www.w3.org/2000/svg" width="360" height="240" viewBox="0 0 360 240" fill="none">
<defs>
<radialGradient id="g" cx="50%" cy="50%" r="58%"><stop offset="0" stop-color="#354A8B" stop-opacity="0.22"/><stop offset="1" stop-color="#77233A" stop-opacity="0"/></radialGradient>
<filter id="blur"><feGaussianBlur stdDeviation="6"/></filter>
</defs>
<ellipse cx="180" cy="120" rx="128" ry="76" fill="url(#g)"/>
<ellipse cx="180" cy="120" rx="72" ry="41" stroke="#C7A160" stroke-opacity="0.160" stroke-width="1"/>
<ellipse cx="180" cy="120" rx="96" ry="55" stroke="#C7A160" stroke-opacity="0.125" stroke-width="1"/>
<ellipse cx="180" cy="120" rx="120" ry="69" stroke="#C7A160" stroke-opacity="0.090" stroke-width="1"/>
<path d="M112 93 C 146 61, 204 107, 234 77" stroke="#354A8B" stroke-opacity="0.34" stroke-width="2" stroke-linecap="round"/>
<path d="M140 109 C 174 77, 232 123, 262 93" stroke="#9A2F42" stroke-opacity="0.34" stroke-width="2" stroke-linecap="round"/>
<path d="M168 93 C 202 61, 260 107, 290 77" stroke="#77233A" stroke-opacity="0.34" stroke-width="2" stroke-linecap="round"/>
<path d="M196 109 C 230 77, 288 123, 318 93" stroke="#354A8B" stroke-opacity="0.34" stroke-width="2" stroke-linecap="round"/>
<circle cx="76.2" cy="122.4" r="2.5" fill="#354A8B" fill-opacity="0.48"/>
<circle cx="111.3" cy="181.4" r="4.0" fill="#9A2F42" fill-opacity="0.62"/>
<circle cx="151.1" cy="149.2" r="4.0" fill="#77233A" fill-opacity="0.76"/>
<circle cx="105.1" cy="147.1" r="5.0" fill="#354A8B" fill-opacity="0.73"/>
<circle cx="131.2" cy="152.4" r="2.5" fill="#9A2F42" fill-opacity="0.54"/>
<circle cx="124.9" cy="161.6" r="3.2" fill="#77233A" fill-opacity="0.73"/>
<circle cx="268.9" cy="146.2" r="2.5" fill="#354A8B" fill-opacity="0.67"/>
<circle cx="200.0" cy="126.1" r="5.0" fill="#9A2F42" fill-opacity="0.65"/>
<circle cx="217.2" cy="83.5" r="4.0" fill="#77233A" fill-opacity="0.59"/>
<circle cx="167.4" cy="97.9" r="2.5" fill="#354A8B" fill-opacity="0.58"/>
<circle cx="240.0" cy="154.5" r="5.0" fill="#9A2F42" fill-opacity="0.75"/>
<circle cx="87.2" cy="96.7" r="2.5" fill="#77233A" fill-opacity="0.63"/>
<circle cx="229.4" cy="139.7" r="4.0" fill="#354A8B" fill-opacity="0.57"/>
<circle cx="256.7" cy="158.5" r="5.0" fill="#9A2F42" fill-opacity="0.48"/>
<circle cx="93.4" cy="120.4" r="3.2" fill="#77233A" fill-opacity="0.58"/>
<circle cx="263.7" cy="168.0" r="2.5" fill="#354A8B" fill-opacity="0.62"/>
<circle cx="254.2" cy="128.1" r="4.0" fill="#9A2F42" fill-opacity="0.61"/>
<circle cx="78.3" cy="115.5" r="4.0" fill="#77233A" fill-opacity="0.48"/>
<text x="18" y="218" font-family="Inter, Arial, sans-serif" font-size="11" letter-spacing="2" fill="#C7A160" fill-opacity="0.62">R07</text>
</svg>