<svg xmlns="http://www.w3.org/2000/svg" width="360" height="240" viewBox="0 0 360 240" fill="none">
<defs>
<radialGradient id="g" cx="50%" cy="50%" r="58%"><stop offset="0" stop-color="#D7B89A" stop-opacity="0.22"/><stop offset="1" stop-color="#D48638" stop-opacity="0"/></radialGradient>
<filter id="blur"><feGaussianBlur stdDeviation="6"/></filter>
</defs>
<ellipse cx="180" cy="120" rx="128" ry="76" fill="url(#g)"/>
<ellipse cx="180" cy="120" rx="72" ry="41" stroke="#C7A160" stroke-opacity="0.160" stroke-width="1"/>
<ellipse cx="180" cy="120" rx="96" ry="55" stroke="#C7A160" stroke-opacity="0.125" stroke-width="1"/>
<ellipse cx="180" cy="120" rx="120" ry="69" stroke="#C7A160" stroke-opacity="0.090" stroke-width="1"/>
<path d="M112 93 C 146 61, 204 107, 234 77" stroke="#D7B89A" stroke-opacity="0.34" stroke-width="2" stroke-linecap="round"/>
<path d="M140 109 C 174 77, 232 123, 262 93" stroke="#C94651" stroke-opacity="0.34" stroke-width="2" stroke-linecap="round"/>
<path d="M168 93 C 202 61, 260 107, 290 77" stroke="#D48638" stroke-opacity="0.34" stroke-width="2" stroke-linecap="round"/>
<path d="M196 109 C 230 77, 288 123, 318 93" stroke="#D7B89A" stroke-opacity="0.34" stroke-width="2" stroke-linecap="round"/>
<circle cx="181.5" cy="148.2" r="3.2" fill="#D7B89A" fill-opacity="0.71"/>
<circle cx="83.6" cy="124.0" r="2.5" fill="#C94651" fill-opacity="0.48"/>
<circle cx="284.6" cy="144.8" r="4.0" fill="#D48638" fill-opacity="0.45"/>
<circle cx="162.9" cy="70.3" r="5.0" fill="#D7B89A" fill-opacity="0.55"/>
<circle cx="229.3" cy="63.6" r="5.0" fill="#C94651" fill-opacity="0.63"/>
<circle cx="78.9" cy="75.1" r="4.0" fill="#D48638" fill-opacity="0.71"/>
<circle cx="151.2" cy="132.5" r="3.2" fill="#D7B89A" fill-opacity="0.62"/>
<circle cx="184.6" cy="79.8" r="5.0" fill="#C94651" fill-opacity="0.77"/>
<circle cx="191.8" cy="114.0" r="3.2" fill="#D48638" fill-opacity="0.62"/>
<circle cx="106.3" cy="165.1" r="3.2" fill="#D7B89A" fill-opacity="0.51"/>
<circle cx="91.7" cy="66.3" r="3.2" fill="#C94651" fill-opacity="0.67"/>
<circle cx="263.8" cy="149.7" r="4.0" fill="#D48638" fill-opacity="0.75"/>
<circle cx="163.2" cy="110.2" r="4.0" fill="#D7B89A" fill-opacity="0.75"/>
<circle cx="90.6" cy="126.5" r="2.5" fill="#C94651" fill-opacity="0.48"/>
<circle cx="93.2" cy="85.1" r="5.0" fill="#D48638" fill-opacity="0.61"/>
<circle cx="150.4" cy="163.1" r="3.2" fill="#D7B89A" fill-opacity="0.51"/>
<circle cx="95.8" cy="171.1" r="5.0" fill="#C94651" fill-opacity="0.57"/>
<circle cx="163.7" cy="84.9" r="4.0" fill="#D48638" fill-opacity="0.72"/>
<text x="18" y="218" font-family="Inter, Arial, sans-serif" font-size="11" letter-spacing="2" fill="#C7A160" fill-opacity="0.62">R09</text>
</svg>