<svg xmlns="http://www.w3.org/2000/svg" width="360" height="240" viewBox="0 0 360 240" fill="none">
<defs>
<radialGradient id="g" cx="50%" cy="50%" r="58%"><stop offset="0" stop-color="#9B6238" stop-opacity="0.22"/><stop offset="1" stop-color="#B65B4B" stop-opacity="0"/></radialGradient>
<filter id="blur"><feGaussianBlur stdDeviation="6"/></filter>
</defs>
<ellipse cx="180" cy="120" rx="128" ry="76" fill="url(#g)"/>
<ellipse cx="180" cy="120" rx="72" ry="41" stroke="#C7A160" stroke-opacity="0.160" stroke-width="1"/>
<ellipse cx="180" cy="120" rx="96" ry="55" stroke="#C7A160" stroke-opacity="0.125" stroke-width="1"/>
<ellipse cx="180" cy="120" rx="120" ry="69" stroke="#C7A160" stroke-opacity="0.090" stroke-width="1"/>
<path d="M112 93 C 146 61, 204 107, 234 77" stroke="#9B6238" stroke-opacity="0.34" stroke-width="2" stroke-linecap="round"/>
<path d="M140 109 C 174 77, 232 123, 262 93" stroke="#D49A42" stroke-opacity="0.34" stroke-width="2" stroke-linecap="round"/>
<path d="M168 93 C 202 61, 260 107, 290 77" stroke="#B65B4B" stroke-opacity="0.34" stroke-width="2" stroke-linecap="round"/>
<path d="M196 109 C 230 77, 288 123, 318 93" stroke="#9B6238" stroke-opacity="0.34" stroke-width="2" stroke-linecap="round"/>
<circle cx="156.3" cy="115.4" r="5.0" fill="#9B6238" fill-opacity="0.54"/>
<circle cx="160.3" cy="180.7" r="3.2" fill="#D49A42" fill-opacity="0.68"/>
<circle cx="219.1" cy="113.0" r="2.5" fill="#B65B4B" fill-opacity="0.75"/>
<circle cx="252.5" cy="132.4" r="3.2" fill="#9B6238" fill-opacity="0.65"/>
<circle cx="263.3" cy="153.6" r="3.2" fill="#D49A42" fill-opacity="0.64"/>
<circle cx="139.8" cy="87.4" r="5.0" fill="#B65B4B" fill-opacity="0.46"/>
<circle cx="133.8" cy="169.1" r="2.5" fill="#9B6238" fill-opacity="0.72"/>
<circle cx="220.9" cy="73.7" r="5.0" fill="#D49A42" fill-opacity="0.76"/>
<circle cx="230.7" cy="105.6" r="4.0" fill="#B65B4B" fill-opacity="0.59"/>
<circle cx="268.5" cy="75.3" r="5.0" fill="#9B6238" fill-opacity="0.60"/>
<circle cx="183.8" cy="177.3" r="2.5" fill="#D49A42" fill-opacity="0.57"/>
<circle cx="256.3" cy="83.3" r="2.5" fill="#B65B4B" fill-opacity="0.65"/>
<circle cx="263.4" cy="97.2" r="5.0" fill="#9B6238" fill-opacity="0.56"/>
<circle cx="116.2" cy="132.1" r="5.0" fill="#D49A42" fill-opacity="0.66"/>
<circle cx="74.8" cy="110.4" r="5.0" fill="#B65B4B" fill-opacity="0.63"/>
<circle cx="287.5" cy="117.6" r="5.0" fill="#9B6238" fill-opacity="0.49"/>
<circle cx="190.2" cy="112.0" r="3.2" fill="#D49A42" fill-opacity="0.51"/>
<circle cx="98.0" cy="144.1" r="4.0" fill="#B65B4B" fill-opacity="0.75"/>
<text x="18" y="218" font-family="Inter, Arial, sans-serif" font-size="11" letter-spacing="2" fill="#C7A160" fill-opacity="0.62">R04</text>
</svg>