<svg xmlns="http://www.w3.org/2000/svg" width="360" height="240" viewBox="0 0 360 240" fill="none">
<defs>
<radialGradient id="g" cx="50%" cy="50%" r="58%"><stop offset="0" stop-color="#5E9A6B" stop-opacity="0.22"/><stop offset="1" stop-color="#C7A160" stop-opacity="0"/></radialGradient>
<filter id="blur"><feGaussianBlur stdDeviation="6"/></filter>
</defs>
<ellipse cx="180" cy="120" rx="128" ry="76" fill="url(#g)"/>
<ellipse cx="180" cy="120" rx="72" ry="41" stroke="#C7A160" stroke-opacity="0.160" stroke-width="1"/>
<ellipse cx="180" cy="120" rx="96" ry="55" stroke="#C7A160" stroke-opacity="0.125" stroke-width="1"/>
<ellipse cx="180" cy="120" rx="120" ry="69" stroke="#C7A160" stroke-opacity="0.090" stroke-width="1"/>
<path d="M112 93 C 146 61, 204 107, 234 77" stroke="#5E9A6B" stroke-opacity="0.34" stroke-width="2" stroke-linecap="round"/>
<path d="M140 109 C 174 77, 232 123, 262 93" stroke="#9BC48A" stroke-opacity="0.34" stroke-width="2" stroke-linecap="round"/>
<path d="M168 93 C 202 61, 260 107, 290 77" stroke="#C7A160" stroke-opacity="0.34" stroke-width="2" stroke-linecap="round"/>
<path d="M196 109 C 230 77, 288 123, 318 93" stroke="#5E9A6B" stroke-opacity="0.34" stroke-width="2" stroke-linecap="round"/>
<circle cx="214.6" cy="154.2" r="5.0" fill="#5E9A6B" fill-opacity="0.64"/>
<circle cx="132.4" cy="106.1" r="2.5" fill="#9BC48A" fill-opacity="0.69"/>
<circle cx="182.2" cy="179.4" r="5.0" fill="#C7A160" fill-opacity="0.69"/>
<circle cx="134.1" cy="103.1" r="2.5" fill="#5E9A6B" fill-opacity="0.53"/>
<circle cx="251.2" cy="177.7" r="4.0" fill="#9BC48A" fill-opacity="0.66"/>
<circle cx="255.2" cy="69.6" r="5.0" fill="#C7A160" fill-opacity="0.61"/>
<circle cx="114.6" cy="158.8" r="3.2" fill="#5E9A6B" fill-opacity="0.71"/>
<circle cx="139.1" cy="105.3" r="5.0" fill="#9BC48A" fill-opacity="0.46"/>
<circle cx="116.4" cy="148.4" r="2.5" fill="#C7A160" fill-opacity="0.55"/>
<circle cx="265.9" cy="89.0" r="5.0" fill="#5E9A6B" fill-opacity="0.57"/>
<circle cx="215.1" cy="130.4" r="2.5" fill="#9BC48A" fill-opacity="0.78"/>
<circle cx="208.6" cy="105.6" r="3.2" fill="#C7A160" fill-opacity="0.69"/>
<circle cx="254.6" cy="144.9" r="3.2" fill="#5E9A6B" fill-opacity="0.49"/>
<circle cx="229.3" cy="132.7" r="4.0" fill="#9BC48A" fill-opacity="0.49"/>
<circle cx="170.6" cy="103.9" r="5.0" fill="#C7A160" fill-opacity="0.46"/>
<circle cx="107.1" cy="141.7" r="2.5" fill="#5E9A6B" fill-opacity="0.75"/>
<circle cx="203.9" cy="103.0" r="2.5" fill="#9BC48A" fill-opacity="0.70"/>
<circle cx="269.9" cy="164.5" r="4.0" fill="#C7A160" fill-opacity="0.45"/>
<text x="18" y="218" font-family="Inter, Arial, sans-serif" font-size="11" letter-spacing="2" fill="#C7A160" fill-opacity="0.62">R02</text>
</svg>