<svg xmlns="http://www.w3.org/2000/svg" width="360" height="240" viewBox="0 0 360 240" fill="none">
<defs>
<radialGradient id="g" cx="50%" cy="50%" r="58%"><stop offset="0" stop-color="#D98A4E" stop-opacity="0.22"/><stop offset="1" stop-color="#BDEAF4" stop-opacity="0"/></radialGradient>
<filter id="blur"><feGaussianBlur stdDeviation="6"/></filter>
</defs>
<ellipse cx="180" cy="120" rx="128" ry="76" fill="url(#g)"/>
<ellipse cx="180" cy="120" rx="72" ry="41" stroke="#82D8F4" stroke-opacity="0.160" stroke-width="1"/>
<ellipse cx="180" cy="120" rx="96" ry="55" stroke="#82D8F4" stroke-opacity="0.125" stroke-width="1"/>
<ellipse cx="180" cy="120" rx="120" ry="69" stroke="#82D8F4" stroke-opacity="0.090" stroke-width="1"/>
<line x1="268.0" y1="120.0" x2="92.0" y2="120.0" stroke="#82D8F4" stroke-opacity="0.34" stroke-width="1.5"/>
<line x1="256.2" y1="144.0" x2="103.8" y2="96.0" stroke="#82D8F4" stroke-opacity="0.34" stroke-width="1.5"/>
<line x1="224.0" y1="161.6" x2="136.0" y2="78.4" stroke="#82D8F4" stroke-opacity="0.34" stroke-width="1.5"/>
<line x1="180.0" y1="168.0" x2="180.0" y2="72.0" stroke="#82D8F4" stroke-opacity="0.34" stroke-width="1.5"/>
<line x1="136.0" y1="161.6" x2="224.0" y2="78.4" stroke="#82D8F4" stroke-opacity="0.34" stroke-width="1.5"/>
<line x1="103.8" y1="144.0" x2="256.2" y2="96.0" stroke="#82D8F4" stroke-opacity="0.34" stroke-width="1.5"/>
<circle cx="180" cy="120" r="8" fill="#82D8F4" fill-opacity="0.45"/>
<circle cx="237.1" cy="125.8" r="3.2" fill="#D98A4E" fill-opacity="0.49"/>
<circle cx="226.3" cy="70.2" r="5.0" fill="#82D8F4" fill-opacity="0.65"/>
<circle cx="256.9" cy="129.2" r="2.5" fill="#BDEAF4" fill-opacity="0.70"/>
<circle cx="198.6" cy="141.5" r="3.2" fill="#D98A4E" fill-opacity="0.67"/>
<circle cx="139.3" cy="159.1" r="5.0" fill="#82D8F4" fill-opacity="0.66"/>
<circle cx="168.0" cy="119.6" r="5.0" fill="#BDEAF4" fill-opacity="0.77"/>
<circle cx="172.3" cy="154.2" r="4.0" fill="#D98A4E" fill-opacity="0.60"/>
<circle cx="264.5" cy="109.5" r="5.0" fill="#82D8F4" fill-opacity="0.75"/>
<circle cx="112.4" cy="126.2" r="2.5" fill="#BDEAF4" fill-opacity="0.60"/>
<circle cx="145.7" cy="112.0" r="4.0" fill="#D98A4E" fill-opacity="0.58"/>
<circle cx="179.6" cy="134.1" r="3.2" fill="#82D8F4" fill-opacity="0.66"/>
<circle cx="200.2" cy="62.3" r="2.5" fill="#BDEAF4" fill-opacity="0.52"/>
<circle cx="240.7" cy="76.1" r="5.0" fill="#D98A4E" fill-opacity="0.64"/>
<circle cx="90.6" cy="127.4" r="5.0" fill="#82D8F4" fill-opacity="0.61"/>
<circle cx="159.1" cy="71.1" r="4.0" fill="#BDEAF4" fill-opacity="0.58"/>
<circle cx="101.2" cy="73.8" r="2.5" fill="#D98A4E" fill-opacity="0.60"/>
<circle cx="252.7" cy="82.4" r="2.5" fill="#82D8F4" fill-opacity="0.70"/>
<circle cx="90.7" cy="164.1" r="3.2" fill="#BDEAF4" fill-opacity="0.52"/>
<text x="18" y="218" font-family="Inter, Arial, sans-serif" font-size="11" letter-spacing="2" fill="#82D8F4" fill-opacity="0.62">I03</text>
</svg>