<svg xmlns="http://www.w3.org/2000/svg" width="360" height="240" viewBox="0 0 360 240" fill="none">
<defs>
<radialGradient id="g" cx="50%" cy="50%" r="58%"><stop offset="0" stop-color="#B52D49" stop-opacity="0.22"/><stop offset="1" stop-color="#BDEAF4" stop-opacity="0"/></radialGradient>
<filter id="blur"><feGaussianBlur stdDeviation="6"/></filter>
</defs>
<ellipse cx="180" cy="120" rx="128" ry="76" fill="url(#g)"/>
<ellipse cx="180" cy="120" rx="72" ry="41" stroke="#82D8F4" stroke-opacity="0.160" stroke-width="1"/>
<ellipse cx="180" cy="120" rx="96" ry="55" stroke="#82D8F4" stroke-opacity="0.125" stroke-width="1"/>
<ellipse cx="180" cy="120" rx="120" ry="69" stroke="#82D8F4" stroke-opacity="0.090" stroke-width="1"/>
<line x1="268.0" y1="120.0" x2="92.0" y2="120.0" stroke="#82D8F4" stroke-opacity="0.34" stroke-width="1.5"/>
<line x1="256.2" y1="144.0" x2="103.8" y2="96.0" stroke="#82D8F4" stroke-opacity="0.34" stroke-width="1.5"/>
<line x1="224.0" y1="161.6" x2="136.0" y2="78.4" stroke="#82D8F4" stroke-opacity="0.34" stroke-width="1.5"/>
<line x1="180.0" y1="168.0" x2="180.0" y2="72.0" stroke="#82D8F4" stroke-opacity="0.34" stroke-width="1.5"/>
<line x1="136.0" y1="161.6" x2="224.0" y2="78.4" stroke="#82D8F4" stroke-opacity="0.34" stroke-width="1.5"/>
<line x1="103.8" y1="144.0" x2="256.2" y2="96.0" stroke="#82D8F4" stroke-opacity="0.34" stroke-width="1.5"/>
<circle cx="180" cy="120" r="8" fill="#82D8F4" fill-opacity="0.45"/>
<circle cx="281.7" cy="58.2" r="4.0" fill="#B52D49" fill-opacity="0.63"/>
<circle cx="82.7" cy="171.5" r="5.0" fill="#82D8F4" fill-opacity="0.45"/>
<circle cx="264.9" cy="115.7" r="3.2" fill="#BDEAF4" fill-opacity="0.48"/>
<circle cx="130.7" cy="128.0" r="3.2" fill="#B52D49" fill-opacity="0.47"/>
<circle cx="77.8" cy="119.5" r="5.0" fill="#82D8F4" fill-opacity="0.72"/>
<circle cx="242.4" cy="167.2" r="3.2" fill="#BDEAF4" fill-opacity="0.72"/>
<circle cx="196.0" cy="144.9" r="3.2" fill="#B52D49" fill-opacity="0.49"/>
<circle cx="129.3" cy="84.3" r="3.2" fill="#82D8F4" fill-opacity="0.47"/>
<circle cx="232.1" cy="142.7" r="4.0" fill="#BDEAF4" fill-opacity="0.74"/>
<circle cx="191.6" cy="120.2" r="4.0" fill="#B52D49" fill-opacity="0.62"/>
<circle cx="126.3" cy="117.7" r="4.0" fill="#82D8F4" fill-opacity="0.77"/>
<circle cx="86.0" cy="143.6" r="5.0" fill="#BDEAF4" fill-opacity="0.75"/>
<circle cx="181.8" cy="143.2" r="2.5" fill="#B52D49" fill-opacity="0.53"/>
<circle cx="126.7" cy="168.9" r="3.2" fill="#82D8F4" fill-opacity="0.55"/>
<circle cx="126.8" cy="76.6" r="2.5" fill="#BDEAF4" fill-opacity="0.67"/>
<circle cx="269.7" cy="180.2" r="5.0" fill="#B52D49" fill-opacity="0.68"/>
<circle cx="282.3" cy="180.6" r="5.0" fill="#82D8F4" fill-opacity="0.51"/>
<circle cx="91.4" cy="120.8" r="5.0" fill="#BDEAF4" fill-opacity="0.67"/>
<text x="18" y="218" font-family="Inter, Arial, sans-serif" font-size="11" letter-spacing="2" fill="#82D8F4" fill-opacity="0.62">I04</text>
</svg>