<svg xmlns="http://www.w3.org/2000/svg" width="360" height="240" viewBox="0 0 360 240" fill="none">
<defs>
<radialGradient id="g" cx="50%" cy="50%" r="58%"><stop offset="0" stop-color="#80A84E" stop-opacity="0.22"/><stop offset="1" stop-color="#D4E277" stop-opacity="0"/></radialGradient>
<filter id="blur"><feGaussianBlur stdDeviation="6"/></filter>
</defs>
<ellipse cx="180" cy="120" rx="128" ry="76" fill="url(#g)"/>
<ellipse cx="180" cy="120" rx="72" ry="41" stroke="#A9D949" stroke-opacity="0.160" stroke-width="1"/>
<ellipse cx="180" cy="120" rx="96" ry="55" stroke="#A9D949" stroke-opacity="0.125" stroke-width="1"/>
<ellipse cx="180" cy="120" rx="120" ry="69" stroke="#A9D949" stroke-opacity="0.090" stroke-width="1"/>
<polyline points="62.0,108.7 84.0,140.7 106.0,111.7 128.0,133.8 150.0,114.7 172.0,122.3 194.0,114.3 216.0,127.1 238.0,101.1 260.0,129.8 282.0,100.3" stroke="#A9D949" stroke-opacity="0.58" stroke-width="2" stroke-linecap="round" stroke-linejoin="round"/>
<circle cx="222.8" cy="178.9" r="4.0" fill="#80A84E" fill-opacity="0.64"/>
<circle cx="265.0" cy="79.1" r="2.5" fill="#A9D949" fill-opacity="0.68"/>
<circle cx="84.7" cy="96.9" r="4.0" fill="#D4E277" fill-opacity="0.76"/>
<circle cx="233.5" cy="134.0" r="2.5" fill="#80A84E" fill-opacity="0.58"/>
<circle cx="242.2" cy="161.1" r="4.0" fill="#A9D949" fill-opacity="0.71"/>
<circle cx="271.1" cy="88.4" r="4.0" fill="#D4E277" fill-opacity="0.60"/>
<circle cx="74.9" cy="169.3" r="3.2" fill="#80A84E" fill-opacity="0.68"/>
<circle cx="81.9" cy="58.9" r="3.2" fill="#A9D949" fill-opacity="0.71"/>
<circle cx="134.7" cy="88.7" r="5.0" fill="#D4E277" fill-opacity="0.75"/>
<circle cx="268.6" cy="104.7" r="2.5" fill="#80A84E" fill-opacity="0.50"/>
<circle cx="219.1" cy="162.5" r="5.0" fill="#A9D949" fill-opacity="0.51"/>
<circle cx="224.3" cy="81.1" r="2.5" fill="#D4E277" fill-opacity="0.54"/>
<circle cx="231.7" cy="173.5" r="2.5" fill="#80A84E" fill-opacity="0.61"/>
<circle cx="151.3" cy="146.3" r="2.5" fill="#A9D949" fill-opacity="0.50"/>
<circle cx="133.1" cy="151.3" r="5.0" fill="#D4E277" fill-opacity="0.62"/>
<circle cx="247.8" cy="144.0" r="2.5" fill="#80A84E" fill-opacity="0.46"/>
<circle cx="102.2" cy="60.4" r="4.0" fill="#A9D949" fill-opacity="0.65"/>
<circle cx="193.1" cy="152.9" r="5.0" fill="#D4E277" fill-opacity="0.66"/>
<text x="18" y="218" font-family="Inter, Arial, sans-serif" font-size="11" letter-spacing="2" fill="#A9D949" fill-opacity="0.62">S05</text>
</svg>