<svg xmlns="http://www.w3.org/2000/svg" width="360" height="240" viewBox="0 0 360 240" fill="none">
<defs>
<radialGradient id="g" cx="50%" cy="50%" r="58%"><stop offset="0" stop-color="#A4324A" stop-opacity="0.22"/><stop offset="1" stop-color="#A9D949" stop-opacity="0"/></radialGradient>
<filter id="blur"><feGaussianBlur stdDeviation="6"/></filter>
</defs>
<ellipse cx="180" cy="120" rx="128" ry="76" fill="url(#g)"/>
<ellipse cx="180" cy="120" rx="72" ry="41" stroke="#A9D949" stroke-opacity="0.160" stroke-width="1"/>
<ellipse cx="180" cy="120" rx="96" ry="55" stroke="#A9D949" stroke-opacity="0.125" stroke-width="1"/>
<ellipse cx="180" cy="120" rx="120" ry="69" stroke="#A9D949" stroke-opacity="0.090" stroke-width="1"/>
<polyline points="62.0,107.1 84.0,123.3 106.0,109.1 128.0,123.6 150.0,103.6 172.0,130.2 194.0,125.3 216.0,135.9 238.0,104.2 260.0,130.6 282.0,112.9" stroke="#A9D949" stroke-opacity="0.58" stroke-width="2" stroke-linecap="round" stroke-linejoin="round"/>
<circle cx="131.9" cy="65.4" r="5.0" fill="#A4324A" fill-opacity="0.70"/>
<circle cx="125.9" cy="122.2" r="3.2" fill="#D9B23E" fill-opacity="0.65"/>
<circle cx="143.9" cy="131.4" r="4.0" fill="#A9D949" fill-opacity="0.77"/>
<circle cx="181.7" cy="152.0" r="2.5" fill="#A4324A" fill-opacity="0.45"/>
<circle cx="121.6" cy="149.1" r="2.5" fill="#D9B23E" fill-opacity="0.63"/>
<circle cx="131.5" cy="147.9" r="2.5" fill="#A9D949" fill-opacity="0.49"/>
<circle cx="89.3" cy="61.8" r="3.2" fill="#A4324A" fill-opacity="0.67"/>
<circle cx="127.9" cy="117.1" r="5.0" fill="#D9B23E" fill-opacity="0.75"/>
<circle cx="262.8" cy="116.6" r="3.2" fill="#A9D949" fill-opacity="0.56"/>
<circle cx="213.9" cy="96.7" r="4.0" fill="#A4324A" fill-opacity="0.76"/>
<circle cx="275.8" cy="115.6" r="4.0" fill="#D9B23E" fill-opacity="0.59"/>
<circle cx="152.6" cy="79.1" r="5.0" fill="#A9D949" fill-opacity="0.63"/>
<circle cx="95.3" cy="62.9" r="4.0" fill="#A4324A" fill-opacity="0.63"/>
<circle cx="223.9" cy="95.1" r="2.5" fill="#D9B23E" fill-opacity="0.67"/>
<circle cx="100.5" cy="61.2" r="4.0" fill="#A9D949" fill-opacity="0.75"/>
<circle cx="124.0" cy="95.5" r="3.2" fill="#A4324A" fill-opacity="0.77"/>
<circle cx="217.3" cy="94.9" r="2.5" fill="#D9B23E" fill-opacity="0.51"/>
<circle cx="158.2" cy="121.1" r="4.0" fill="#A9D949" fill-opacity="0.63"/>
<text x="18" y="218" font-family="Inter, Arial, sans-serif" font-size="11" letter-spacing="2" fill="#A9D949" fill-opacity="0.62">S07</text>
</svg>