<svg xmlns="http://www.w3.org/2000/svg" width="360" height="240" viewBox="0 0 360 240" fill="none">
<defs>
<radialGradient id="g" cx="50%" cy="50%" r="58%"><stop offset="0" stop-color="#E0A63C" stop-opacity="0.22"/><stop offset="1" stop-color="#A9D949" stop-opacity="0"/></radialGradient>
<filter id="blur"><feGaussianBlur stdDeviation="6"/></filter>
</defs>
<ellipse cx="180" cy="120" rx="128" ry="76" fill="url(#g)"/>
<ellipse cx="180" cy="120" rx="72" ry="41" stroke="#A9D949" stroke-opacity="0.160" stroke-width="1"/>
<ellipse cx="180" cy="120" rx="96" ry="55" stroke="#A9D949" stroke-opacity="0.125" stroke-width="1"/>
<ellipse cx="180" cy="120" rx="120" ry="69" stroke="#A9D949" stroke-opacity="0.090" stroke-width="1"/>
<polyline points="62.0,121.7 84.0,140.5 106.0,122.6 128.0,148.3 150.0,104.1 172.0,141.2 194.0,99.8 216.0,131.2 238.0,115.8 260.0,128.7 282.0,99.6" stroke="#A9D949" stroke-opacity="0.58" stroke-width="2" stroke-linecap="round" stroke-linejoin="round"/>
<circle cx="195.7" cy="129.8" r="3.2" fill="#E0A63C" fill-opacity="0.65"/>
<circle cx="184.6" cy="163.3" r="5.0" fill="#B32E49" fill-opacity="0.76"/>
<circle cx="170.7" cy="131.2" r="5.0" fill="#A9D949" fill-opacity="0.72"/>
<circle cx="149.2" cy="171.9" r="2.5" fill="#E0A63C" fill-opacity="0.56"/>
<circle cx="149.8" cy="156.0" r="5.0" fill="#B32E49" fill-opacity="0.66"/>
<circle cx="258.2" cy="133.3" r="5.0" fill="#A9D949" fill-opacity="0.75"/>
<circle cx="215.7" cy="139.7" r="3.2" fill="#E0A63C" fill-opacity="0.65"/>
<circle cx="76.5" cy="107.1" r="4.0" fill="#B32E49" fill-opacity="0.51"/>
<circle cx="78.7" cy="133.5" r="4.0" fill="#A9D949" fill-opacity="0.51"/>
<circle cx="270.2" cy="169.9" r="3.2" fill="#E0A63C" fill-opacity="0.74"/>
<circle cx="86.6" cy="120.4" r="4.0" fill="#B32E49" fill-opacity="0.75"/>
<circle cx="260.7" cy="123.7" r="5.0" fill="#A9D949" fill-opacity="0.55"/>
<circle cx="130.9" cy="159.4" r="2.5" fill="#E0A63C" fill-opacity="0.46"/>
<circle cx="164.2" cy="132.8" r="2.5" fill="#B32E49" fill-opacity="0.64"/>
<circle cx="274.9" cy="145.3" r="2.5" fill="#A9D949" fill-opacity="0.78"/>
<circle cx="126.4" cy="77.5" r="5.0" fill="#E0A63C" fill-opacity="0.45"/>
<circle cx="148.8" cy="123.9" r="2.5" fill="#B32E49" fill-opacity="0.50"/>
<circle cx="251.6" cy="110.2" r="5.0" fill="#A9D949" fill-opacity="0.76"/>
<text x="18" y="218" font-family="Inter, Arial, sans-serif" font-size="11" letter-spacing="2" fill="#A9D949" fill-opacity="0.62">S06</text>
</svg>